#N canvas 713 258 461 404 10;
#X obj 307 19 ctlin;
#X obj 311 66 pack f f f;
#X msg 246 39 bang;
#X obj 311 94 route 1;
#X obj 313 127 route 15;
#X obj 208 326 outlet;
#X obj 312 161 / 127;
#X obj 81 208 oscparse;
#X obj 57 309 print udp;
#X msg 85 83 listen 3000;
#X msg 37 72 listen 2399;
#X msg 142 100 listen 0;
#X msg 105 30 listen localhost 2399;
#X obj 262 242 unpack s f;
#X obj 163 231 route y;
#X obj 92 254 list trim;
#X obj 306 290 r udpy;
#X connect 0 0 1 2;
#X connect 0 0 2 0;
#X connect 0 1 1 1;
#X connect 0 2 1 0;
#X connect 1 0 3 0;
#X connect 2 0 1 0;
#X connect 3 0 4 0;
#X connect 4 0 6 0;
#X connect 7 0 15 0;
#X connect 16 0 5 0;
