#N canvas 309 182 759 557 10;
#X obj 343 173 inlet~;
#X obj 114 134 hsl 128 15 0 1 0 1 \$0-mix \$0-mix-set Dry/Wet -2 -8
0 10 -262144 -1 -1 12700 1;
#X floatatom 120 149 5 0 0 0 - - -;
#X obj 112 174 tgl 15 1 \$0-expression-toggle \$0-expression-toggle-set
Expression 17 7 0 10 -262144 -1 -1 0 1;
#X obj 192 174 tgl 15 1 \$0-bypass-toggle \$0-bypass-toggle-set Bypass
17 7 0 10 -262144 -1 -1 1 1;
#X obj 199 151 bng 15 250 50 0 \$0-50-mix \$0-50-mix-set 50% 17 7 0
10 -262144 -1 -1;
#X obj 295 432 abswitch~;
#X obj 292 461 outlet~;
#X obj 104 291 r \$0-50-mix;
#X msg 102 317 0.5;
#X obj 104 341 s \$0-mix-set;
#X obj 43 385 expression;
#X obj 49 435 spigot;
#X obj 84 408 r \$0-expression-toggle;
#X obj 49 465 s \$0-mix-set;
#X obj 327 146 r~ \$1;
#X obj 390 462 s~ \$1-out;
#X obj 484 267 r \$1;
#X obj 549 290 route mix;
#X obj 561 334 s \$0-mix-set;
#X obj 549 370 route expression;
#X obj 561 414 s \$0-expression-toggle-set;
#X obj 549 450 route bypass;
#X obj 561 494 s \$0-bypass-toggle-set;
#N canvas 20 121 622 480 effect 0;
#X obj 124 187 clip~ -1 0;
#X obj 210 187 clip~ 0 1;
#X obj 123 210 *~ -1;
#X obj 179 272 hip~ 2;
#X obj 237 123 r \$0-mix;
#X obj 219 152 *~;
#X obj 352 87 r \$0-mix;
#X obj 352 109 expr 1-$f1;
#X obj 334 134 *~;
#X obj 245 35 inlet~;
#X obj 179 365 outlet~;
#X obj 495 130 switch~;
#X obj 495 41 inlet;
#X obj 495 71 route 0;
#X msg 495 98 1;
#X msg 541 98 0;
#X connect 0 0 2 0;
#X connect 1 0 3 0;
#X connect 2 0 3 0;
#X connect 3 0 10 0;
#X connect 4 0 5 1;
#X connect 5 0 0 0;
#X connect 5 0 1 0;
#X connect 6 0 7 0;
#X connect 7 0 8 1;
#X connect 8 0 10 0;
#X connect 9 0 5 0;
#X connect 9 0 8 0;
#X connect 12 0 13 0;
#X connect 13 0 14 0;
#X connect 13 1 15 0;
#X connect 14 0 11 0;
#X connect 15 0 11 0;
#X restore 259 324 pd effect;
#X obj 326 213 +~;
#N canvas 35 193 550 390 bypass_control 0;
#X obj 152 92 r \$0-bypass-toggle;
#X obj 152 112 pack;
#X obj 152 214 t f f;
#X obj 228 214 t f f;
#X obj 152 132 route 0;
#X obj 158 324 outlet;
#X obj 217 324 outlet;
#X text 155 353 effect;
#X text 218 350 switcher;
#X text 105 36 sequences bypass and effect disable;
#X text 106 50 to prevent clicks when switching;
#X msg 98 214 clear;
#X msg 272 214 clear;
#X obj 228 262 pipe 100;
#X text 2 225 effect on;
#X text 335 223 effect off;
#X obj 152 262 pipe 100;
#X connect 0 0 1 1;
#X connect 0 0 1 0;
#X connect 1 0 4 0;
#X connect 2 0 16 0;
#X connect 2 1 5 0;
#X connect 3 0 13 0;
#X connect 3 1 6 0;
#X connect 4 0 2 0;
#X connect 4 0 12 0;
#X connect 4 1 3 0;
#X connect 4 1 11 0;
#X connect 11 0 16 0;
#X connect 12 0 13 0;
#X connect 13 0 5 0;
#X connect 16 0 6 0;
#X restore 343 284 pd bypass_control;
#X connect 0 0 25 1;
#X connect 1 0 2 0;
#X connect 6 0 7 0;
#X connect 6 0 16 0;
#X connect 8 0 9 0;
#X connect 9 0 10 0;
#X connect 11 0 12 0;
#X connect 12 0 14 0;
#X connect 13 0 12 1;
#X connect 15 0 25 0;
#X connect 17 0 18 0;
#X connect 17 0 20 0;
#X connect 17 0 22 0;
#X connect 18 0 19 0;
#X connect 20 0 21 0;
#X connect 22 0 23 0;
#X connect 24 0 6 0;
#X connect 25 0 24 0;
#X connect 25 0 6 1;
#X connect 26 0 24 1;
#X connect 26 1 6 2;
#X coords 0 -1 1 1 150 100 1 100 100;
