#N canvas 5 49 450 300 10;
#X obj 52 80 pgmin;
#X obj 52 167 route 1;
#X obj 52 109 swap;
#X obj 52 138 pack;
#X obj 52 192 outlet;
#X connect 0 0 2 0;
#X connect 0 1 2 1;
#X connect 1 0 4 0;
#X connect 2 0 3 0;
#X connect 2 1 3 1;
#X connect 3 0 1 0;
