#N canvas 5 48 1247 691 24;
#X floatatom 105 139 5 0 0 0 - - -;
#X obj 68 -2 presetnum;
#X obj 105 24 r title;
#X symbolatom 105 109 26 0 0 0 - - -;
#X obj 53 25 zexy;
#X obj 105 54 list2symbol;
#X obj 391 -50 presetnum;
#X obj 391 -22 % 2;
#X obj 403 7 route 0;
#X msg 403 30 2;
#X msg 445 29 1;
#X floatatom 340 139 5 0 0 0 - - -;
#X floatatom 420 139 5 0 0 0 - - -;
#X obj 204 10 expr int($f1/2+$f2);
#X connect 1 0 0 0;
#X connect 2 0 5 0;
#X connect 5 0 3 0;
#X connect 6 0 7 0;
#X connect 6 0 13 0;
#X connect 7 0 8 0;
#X connect 7 0 13 1;
#X connect 8 0 9 0;
#X connect 8 1 10 0;
#X connect 9 0 12 0;
#X connect 10 0 12 0;
#X connect 13 0 11 0;
#X coords 0 -1 1 1 410 70 2 100 100;
