#N canvas 5 48 1247 691 10;
#X obj 263 191 hsl 128 15 0 1 0 1 \$0-mix \$0-mix-set Mix -2 -8 0 10
-262144 -1 -1 6350 1;
#X obj 263 136 hsl 128 15 0 1 0 1 \$0-transpose \$0-transpose-set Transpose
-2 -8 0 10 -262144 -1 -1 12700 1;
#X floatatom 268 151 5 0 0 0 - #0-semitones -;
#X floatatom 268 206 5 0 0 0 - - -;
#X obj 110 256 tgl 15 1 \$0-expression-feedback \$0-expression-feedback-set
Feedback 17 7 0 10 -262144 -1 -1 0 1;
#X obj 260 236 tgl 15 1 \$0-bypass-toggle \$0-bypass-toggle-set Bypass
17 7 0 10 -262144 -1 -1 1 1;
#X obj 347 208 bng 15 250 50 0 \$0-50-mix \$0-50-mix 50% 17 7 0 10
-262144 -1 -1;
#X obj 113 136 hsl 128 15 0 1 0 1 \$0-feedback \$0-feedback-set Feedback
-2 -8 0 10 -262144 -1 -1 7620 1;
#X floatatom 118 151 5 0 0 0 - #0-feedback -;
#X obj 824 608 r \$0-transpose;
#X obj 824 631 * 12;
#X obj 824 656 s \$0-semitones;
#X obj 731 608 r \$0-50-mix;
#X msg 731 632 0.5;
#X obj 731 656 s \$0-mix-set;
#X obj 113 191 hsl 128 15 0 1 0 1 \$0-delay \$0-delay-set Delay -2
-8 0 10 -262144 -1 -1 0 1;
#X floatatom 118 206 5 0 0 0 - #0-delay-time -;
#X obj 761 162 expression;
#X obj 110 276 tgl 15 1 \$0-expression-transpose \$0-expression-transpose-set
Transpose 17 7 0 10 -262144 -1 -1 0 1;
#X obj 110 296 tgl 15 1 \$0-expression-mix \$0-expression-mix-set Mix
17 7 0 10 -262144 -1 -1 1 1;
#X obj 110 236 tgl 15 1 \$0-expression-toggle \$0-expression-toggle-set
Expression_Enable 17 7 0 10 -262144 -1 -1 0 1;
#X obj 761 203 spigot;
#X obj 800 182 r \$0-expression-toggle;
#X obj 690 520 spigot;
#X obj 729 499 r \$0-expression-feedback;
#X obj 690 543 s \$0-feedback-set;
#X obj 756 439 spigot;
#X obj 795 418 r \$0-expression-transpose;
#X obj 756 462 s \$0-transpose-set;
#X obj 806 369 spigot;
#X obj 845 348 r \$0-expression-mix;
#X obj 806 392 s \$0-mix-set;
#X obj 419 413 outlet~;
#X obj 483 413 s~ \$1-out;
#X obj 423 103 +~;
#X obj 400 64 inlet~;
#X obj 463 63 r~ \$1;
#X obj 1063 282 route expression;
#X obj 1063 342 route bypass;
#X obj 1063 311 s \$0-expression-toggle-set;
#X obj 1063 371 s \$0-bypass-toggle-set;
#X obj 951 23 r \$1;
#X obj 1063 61 route feedback;
#X obj 1063 84 s \$0-feedback-set;
#X obj 1063 121 route transpose;
#X obj 1063 143 s \$0-transpose-set;
#X obj 1063 173 route delay;
#X obj 1063 195 s \$0-delay-set;
#X obj 1063 224 route mix;
#X obj 1063 247 s \$0-mix-set;
#X obj 1063 400 route expression-feedback;
#X obj 1063 423 s \$0-expression-feedback-set;
#X obj 1063 450 route expression-transpose;
#X obj 1063 473 s \$0-expression-transpose-set;
#X obj 1063 503 route expression-mix;
#X obj 1063 525 s \$0-expression-mix-set;
#X obj 260 296 tgl 15 1 \$0-expression-range-toggle \$0-expression-range-toggle-set
Expression_Range 17 7 0 10 -262144 -1 -1 0 1;
#X obj 1063 553 route expression-range;
#X obj 1063 575 s \$0-expression-range-toggle-set;
#X obj 786 222 r \$0-expression-range-toggle;
#X obj 761 245 swap;
#X obj 761 268 pack;
#X obj 761 288 route 0 1;
#X obj 791 310 * 0.5;
#N canvas 5 73 1257 694 effect 0;
#X msg 370 140 transpose \$1;
#X obj 485 129 r \$0-feedback;
#X obj 283 192 *~;
#X obj 485 175 line;
#X msg 485 153 \$1 35;
#X obj 370 118 line;
#X msg 370 96 \$1 35;
#X obj 370 72 r \$0-semitones;
#X obj 154 22 r \$0-delay;
#X obj 166 98 s \$0-delay-time;
#X obj 154 49 * 100;
#X obj 282 218 delwrite~ \$0-delay 100;
#X obj 154 71 int;
#X obj 154 127 delread~ \$0-delay;
#X obj 282 164 pitchshifter~;
#X obj 281 -54 inlet~;
#X obj 179 414 outlet~;
#X obj 254 300 r \$0-mix;
#X obj 180 383 crossfader~;
#X obj 665 120 switch~;
#X obj 665 31 inlet;
#X obj 665 61 route 0;
#X msg 665 88 1;
#X msg 711 88 0;
#X connect 0 0 14 1;
#X connect 1 0 4 0;
#X connect 2 0 11 0;
#X connect 3 0 2 1;
#X connect 4 0 3 0;
#X connect 5 0 0 0;
#X connect 6 0 5 0;
#X connect 7 0 6 0;
#X connect 8 0 10 0;
#X connect 10 0 12 0;
#X connect 12 0 13 0;
#X connect 12 0 9 0;
#X connect 13 0 14 0;
#X connect 13 0 18 1;
#X connect 14 0 2 0;
#X connect 15 0 14 0;
#X connect 15 0 18 0;
#X connect 17 0 18 2;
#X connect 18 0 16 0;
#X connect 20 0 21 0;
#X connect 21 0 22 0;
#X connect 21 1 23 0;
#X connect 22 0 19 0;
#X connect 23 0 19 0;
#X restore 468 199 pd effect;
#N canvas 35 193 550 390 bypass_control 0;
#X obj 152 92 r \$0-bypass-toggle;
#X obj 152 112 pack;
#X obj 152 214 t f f;
#X obj 228 214 t f f;
#X obj 152 132 route 0;
#X obj 158 324 outlet;
#X obj 217 324 outlet;
#X text 155 353 effect;
#X text 218 350 switcher;
#X text 105 36 sequences bypass and effect disable;
#X text 106 50 to prevent clicks when switching;
#X msg 98 214 clear;
#X msg 272 214 clear;
#X obj 228 262 pipe 100;
#X text 2 225 effect on;
#X text 335 223 effect off;
#X obj 152 262 pipe 100;
#X connect 0 0 1 1;
#X connect 0 0 1 0;
#X connect 1 0 4 0;
#X connect 2 0 16 0;
#X connect 2 1 5 0;
#X connect 3 0 13 0;
#X connect 3 1 6 0;
#X connect 4 0 2 0;
#X connect 4 0 12 0;
#X connect 4 1 3 0;
#X connect 4 1 11 0;
#X connect 11 0 16 0;
#X connect 12 0 13 0;
#X connect 13 0 5 0;
#X connect 16 0 6 0;
#X restore 528 156 pd bypass_control;
#X obj 443 310 abswitch~;
#X connect 0 0 3 0;
#X connect 9 0 10 0;
#X connect 10 0 11 0;
#X connect 12 0 13 0;
#X connect 13 0 14 0;
#X connect 17 0 21 0;
#X connect 21 0 60 0;
#X connect 22 0 21 1;
#X connect 23 0 25 0;
#X connect 24 0 23 1;
#X connect 26 0 28 0;
#X connect 27 0 26 1;
#X connect 29 0 31 0;
#X connect 30 0 29 1;
#X connect 34 0 64 0;
#X connect 34 0 66 1;
#X connect 35 0 34 0;
#X connect 36 0 34 1;
#X connect 37 0 39 0;
#X connect 38 0 40 0;
#X connect 41 0 38 0;
#X connect 41 0 37 0;
#X connect 41 0 42 0;
#X connect 41 0 44 0;
#X connect 41 0 46 0;
#X connect 41 0 48 0;
#X connect 41 0 50 0;
#X connect 41 0 52 0;
#X connect 41 0 54 0;
#X connect 41 0 57 0;
#X connect 42 0 43 0;
#X connect 44 0 45 0;
#X connect 46 0 47 0;
#X connect 48 0 49 0;
#X connect 50 0 51 0;
#X connect 52 0 53 0;
#X connect 54 0 55 0;
#X connect 57 0 58 0;
#X connect 59 0 60 1;
#X connect 60 0 61 0;
#X connect 60 1 61 1;
#X connect 61 0 62 0;
#X connect 62 0 29 0;
#X connect 62 0 26 0;
#X connect 62 0 23 0;
#X connect 62 1 63 0;
#X connect 63 0 29 0;
#X connect 63 0 26 0;
#X connect 63 0 23 0;
#X connect 64 0 66 0;
#X connect 65 0 64 1;
#X connect 65 1 66 2;
#X connect 66 0 32 0;
#X connect 66 0 33 0;
#X coords 0 -1 1 1 300 225 1 100 100;
