#N canvas 114 109 822 662 10;
#X obj 256 472 float;
#X obj 313 509 + 1;
#X floatatom 256 526 5 0 0 0 - - -;
#X floatatom 323 347 5 0 0 0 - - -;
#X obj 301 398 /;
#X obj 323 301 loadbang;
#X msg 323 324 60000;
#X obj 302 371 swap;
#X obj 313 536 mod \$2;
#X obj 256 169 inlet;
#X obj 256 572 outlet;
#X obj 256 427 metro;
#X obj 302 275 float \$1;
#X obj 302 251 loadbang;
#X obj 390 232 route steps;
#X obj 490 232 route reset;
#X obj 123 345 route 1 bang;
#X obj 577 436 route 0 stop;
#X msg 583 486 0;
#X obj 582 461 t b b;
#X msg 607 514 0;
#X obj 292 231 route tempo;
#X msg 490 287 0;
#X obj 490 262 t b b;
#X connect 0 0 1 0;
#X connect 0 0 2 0;
#X connect 1 0 8 0;
#X connect 2 0 10 0;
#X connect 3 0 7 1;
#X connect 4 0 11 1;
#X connect 5 0 6 0;
#X connect 6 0 3 0;
#X connect 7 0 4 0;
#X connect 7 1 4 1;
#X connect 8 0 0 1;
#X connect 9 0 14 0;
#X connect 9 0 15 0;
#X connect 9 0 16 0;
#X connect 9 0 17 0;
#X connect 9 0 21 0;
#X connect 11 0 0 0;
#X connect 12 0 7 0;
#X connect 13 0 12 0;
#X connect 14 0 8 1;
#X connect 15 0 23 0;
#X connect 16 0 11 0;
#X connect 16 1 11 0;
#X connect 17 0 19 0;
#X connect 18 0 11 0;
#X connect 19 0 20 0;
#X connect 19 1 18 0;
#X connect 20 0 2 0;
#X connect 21 0 7 0;
#X connect 22 0 0 0;
#X connect 23 0 22 0;
#X connect 23 1 11 0;
