#N canvas 864 328 462 384 10;
#X obj 153 101 realtime;
#X obj 153 78 t b b;
#X obj 153 54 bng 15 250 50 0 empty empty empty 17 7 0 10 -262144 -1
-1;
#X floatatom 153 231 5 0 0 0 - - -;
#X obj 153 126 moses 1500;
#X obj 153 32 inlet;
#X obj 153 252 outlet;
#X obj 31 211 /;
#X obj 31 182 swap;
#X obj 56 135 float 60000;
#X floatatom 31 235 5 0 0 0 - - -;
#X obj 56 113 loadbang;
#X text 151 13 Tap bangs;
#X text 123 270 ms between taps;
#X obj 31 256 outlet;
#X text 30 274 BPM;
#N canvas 766 252 432 425 avg 0;
#X obj 114 86 inlet;
#X obj 114 150 f 0;
#X obj 147 161 % 3;
#X obj 147 138 + 1;
#X obj 114 113 t b f;
#X obj 121 279 pack f f f;
#X obj 121 213 route 0 1 2;
#X obj 121 191 pack;
#X obj 145 235 t b f;
#X obj 195 235 t b f;
#X obj 121 303 sum;
#X obj 121 323 / 3;
#X obj 121 343 outlet;
#X connect 0 0 4 0;
#X connect 1 0 3 0;
#X connect 1 0 7 0;
#X connect 2 0 1 1;
#X connect 3 0 2 0;
#X connect 4 0 1 0;
#X connect 4 1 7 1;
#X connect 5 0 10 0;
#X connect 6 0 5 0;
#X connect 6 1 8 0;
#X connect 6 2 9 0;
#X connect 7 0 6 0;
#X connect 8 0 5 0;
#X connect 8 1 5 1;
#X connect 9 0 5 0;
#X connect 9 1 5 2;
#X connect 10 0 11 0;
#X connect 11 0 12 0;
#X restore 153 149 pd avg;
#X connect 0 0 4 0;
#X connect 1 0 0 0;
#X connect 1 1 0 1;
#X connect 2 0 1 0;
#X connect 3 0 6 0;
#X connect 4 0 16 0;
#X connect 5 0 2 0;
#X connect 7 0 10 0;
#X connect 8 0 7 0;
#X connect 8 1 7 1;
#X connect 9 0 8 1;
#X connect 10 0 14 0;
#X connect 11 0 9 0;
#X connect 16 0 3 0;
#X connect 16 0 8 0;
