#N canvas -17 49 1257 694 10;
#X obj 112 136 hsl 128 15 1 12 0 1 \$0-rate \$0-rate-set Rate -2 -8
0 10 -262144 -1 -1 3464 1;
#X obj 112 183 hsl 128 15 0 1 0 1 \$0-depth \$0-depth-set Depth -2
-8 0 10 -262144 -1 -1 9525 1;
#X floatatom 123 151 5 0 0 0 - - -;
#X floatatom 123 198 5 0 0 0 - - -;
#X obj 875 37 phasor~;
#X obj 874 61 cos~;
#X obj 874 82 *~ 0.5;
#X obj 873 107 +~ 0.5;
#X obj 192 221 tgl 15 1 \$0-bypass-toggle \$0-bypass-toggle-set Bypass
17 7 0 10 -262144 -1 -1 0 1;
#X obj 433 288 expression;
#X obj 110 221 tgl 15 1 \$0-expression-toggle \$0-expression-toggle-set
Expression 17 7 0 10 -262144 -1 -1 1 1;
#X obj 433 313 spigot;
#X obj 875 -28 r \$0-rate;
#X obj 514 288 r \$0-expression-toggle;
#X obj 433 415 s \$0-rate-set;
#X obj 249 434 r \$1;
#X obj 40 486 route rate;
#X obj 40 515 s \$0-rate-set;
#X obj 140 486 route depth;
#X obj 140 515 s \$0-depth-set;
#X obj 249 486 route expression;
#X obj 441 486 route bypass;
#X obj 249 515 s \$0-expression-toggle-set;
#X obj 441 515 s \$0-bypass-toggle-set;
#X obj 666 341 route 0;
#X msg 666 369 1;
#X msg 712 369 0;
#X obj 692 429 s \$0-bypass-toggle-set;
#X text 606 448 Bypass when pedal is in heel down position;
#X obj 433 364 * 9;
#X obj 433 394 + 1;
#X obj 457 -105 inlet~;
#X obj 875 16 line;
#X msg 875 -7 \$1 35;
#X obj 874 134 s~ \$0-lfo;
#X obj 436 54 *~;
#X obj 436 108 *~;
#X obj 482 22 r~ \$0-lfo;
#X obj 437 -1 r~ \$1-input;
#X text 435 -22 Left wet;
#X obj 286 78 *~;
#X obj 287 -1 r~ \$1-input;
#X obj 304 51 expr 1-$f1;
#X text 296 -22 Dry;
#X obj 606 74 *~;
#X obj 606 128 *~;
#X obj 652 22 r~ \$0-lfo;
#X obj 607 -1 r~ \$1-input;
#X text 605 -24 Right wet;
#X obj 652 46 expr~ 1-$v1;
#X obj 928 341 spigot;
#X obj 1093 190 r \$0-bypass-toggle;
#X obj 1093 215 route 0;
#X obj 1069 244 t b b;
#X obj 1139 243 t b b;
#X msg 1101 267 1;
#X msg 1171 271 0;
#X obj 1171 297 s \$0-depth;
#X msg 1139 295 0;
#X obj 928 299 r \$0-depth;
#X obj 992 267 s \$0-depth-set;
#X obj 928 391 line;
#X msg 928 367 \$1 35;
#X obj 928 420 s \$0-depth-actual;
#X obj 647 97 r \$0-depth-actual;
#X obj 477 77 r \$0-depth-actual;
#X obj 304 27 r \$0-depth-actual;
#X obj 412 159 +~;
#X obj 465 159 +~;
#X obj 422 -68 s~ \$1-input;
#X text 865 -48 LFO Generator;
#X text 930 212 Bypass/depth control;
#X obj 394 201 outlet~;
#X obj 466 201 outlet~;
#X obj 350 230 s~ \$1-out;
#X obj 442 230 s~ \$1-out2;
#X obj 393 -105 r~ \$1;
#X connect 0 0 2 0;
#X connect 1 0 3 0;
#X connect 4 0 5 0;
#X connect 5 0 6 0;
#X connect 6 0 7 0;
#X connect 7 0 34 0;
#X connect 9 0 11 0;
#X connect 11 0 29 0;
#X connect 11 0 24 0;
#X connect 12 0 33 0;
#X connect 13 0 11 1;
#X connect 15 0 16 0;
#X connect 15 0 18 0;
#X connect 15 0 20 0;
#X connect 15 0 21 0;
#X connect 16 0 17 0;
#X connect 18 0 19 0;
#X connect 20 0 22 0;
#X connect 21 0 23 0;
#X connect 24 0 25 0;
#X connect 24 1 26 0;
#X connect 25 0 27 0;
#X connect 26 0 27 0;
#X connect 29 0 30 0;
#X connect 30 0 14 0;
#X connect 31 0 69 0;
#X connect 32 0 4 0;
#X connect 33 0 32 0;
#X connect 35 0 36 0;
#X connect 36 0 67 1;
#X connect 37 0 35 1;
#X connect 38 0 35 0;
#X connect 40 0 67 0;
#X connect 40 0 68 0;
#X connect 41 0 40 0;
#X connect 42 0 40 1;
#X connect 44 0 45 0;
#X connect 45 0 68 1;
#X connect 46 0 49 0;
#X connect 47 0 44 0;
#X connect 49 0 44 1;
#X connect 50 0 62 0;
#X connect 51 0 52 0;
#X connect 52 0 53 0;
#X connect 52 1 54 0;
#X connect 53 0 60 0;
#X connect 53 1 55 0;
#X connect 54 0 58 0;
#X connect 54 1 56 0;
#X connect 55 0 50 1;
#X connect 56 0 57 0;
#X connect 58 0 50 1;
#X connect 59 0 50 0;
#X connect 61 0 63 0;
#X connect 62 0 61 0;
#X connect 64 0 45 1;
#X connect 65 0 36 1;
#X connect 66 0 42 0;
#X connect 67 0 72 0;
#X connect 67 0 74 0;
#X connect 68 0 73 0;
#X connect 68 0 75 0;
#X connect 76 0 69 0;
#X coords 0 -1 1 1 150 150 1 100 100;
