#N canvas 5 48 1247 691 10;
#X obj 114 174 hsl 128 15 0 1 0 1 \$0-mix \$0-mix-set Mix -2 -8 0 10
-262144 -1 -1 6350 1;
#X obj 112 129 hsl 128 15 0 1 0 1 \$0-transpose \$0-transpose-set Transpose
-2 -8 0 10 -262144 -1 -1 12700 1;
#X floatatom 120 144 5 0 0 0 - #0-semitones -;
#X floatatom 120 189 5 0 0 0 - - -;
#X obj 697 5 spigot;
#X obj 112 214 tgl 15 1 \$0-expression-toggle \$0-expression-toggle-set
Expression 17 7 0 10 -262144 -1 -1 0 1;
#X obj 426 369 outlet~;
#X obj 192 214 tgl 15 1 \$0-bypass-toggle \$0-bypass-toggle-set Bypass
17 7 0 10 -262144 -1 -1 1 1;
#X msg 527 -11 0;
#X obj 736 -20 r \$0-expression-toggle;
#X obj 591 139 s \$0-transpose-set;
#X obj 527 -39 r \$0-zero-transpose;
#X obj 199 146 bng 15 250 50 0 \$0-zero-transpose \$0-zero-transpose-set
Zero 17 7 0 10 -262144 -1 -1;
#X obj 527 19 s \$0-transpose-set;
#X obj 112 271 vradio 15 1 1 3 \$0-dir-sel \$0-dir-sel-set Direction
0 -8 0 10 -262144 -1 -1 2;
#X text 129 270 Up;
#X text 129 285 Both;
#X text 129 300 Down;
#X obj 182 271 vradio 15 1 1 3 \$0-range-sel \$0-range-sel-set Range
0 -8 0 10 -262144 -1 -1 0;
#X text 199 300 Second;
#X text 199 285 Fifth;
#X text 199 270 Octave;
#X obj 755 301 r \$0-range-sel;
#X obj 663 217 r \$0-dir-sel;
#X obj 663 302 route 0 1 2;
#X obj 755 325 route 0 1 2;
#X msg 779 353 5;
#X msg 812 353 2;
#X msg 745 353 12;
#X obj 759 217 r \$0-transpose;
#X obj 663 281 pack;
#X obj 712 325 * -1;
#X obj 687 344 * 2;
#X obj 687 369 - 1;
#X obj 684 414 *;
#X obj 684 437 s \$0-semitones;
#X obj 199 191 bng 15 250 50 0 \$0-50-mix \$0-50-mix 50% 17 7 0 10
-262144 -1 -1;
#X obj 397 -39 r \$0-50-mix;
#X msg 397 -11 0.5;
#X obj 397 19 s \$0-mix-set;
#X text 660 197 Convert expression/slider to semitones;
#X text 390 -57 50% Mix Button;
#X text 523 -57 Zero Transpose Button;
#X text 693 -57 Expression pedal;
#X obj 354 369 s~ \$1-out;
#X obj 460 162 inlet~;
#X obj 418 162 r~ \$1;
#X obj 697 -41 expression;
#X obj 779 383 t b f;
#X obj 698 249 t b f;
#X obj 417 210 +~;
#X obj 313 526 route expression;
#X obj 725 526 route bypass;
#X obj 313 555 s \$0-expression-toggle-set;
#X obj 725 555 s \$0-bypass-toggle-set;
#X obj 64 526 route transpose;
#X obj 64 555 s \$0-transpose-set;
#X obj 204 526 route mix;
#X obj 204 555 s \$0-mix-set;
#X obj 919 509 route direction;
#X obj 919 534 route 1 0 -1;
#X msg 914 567 0;
#X msg 946 567 1;
#X msg 982 567 2;
#X obj 946 598 s \$0-dir-sel-set;
#X msg 1071 562 0;
#X msg 1106 562 1;
#X msg 1140 562 2;
#X obj 1079 509 route range;
#X obj 1079 534 route 12 5 2;
#X obj 1106 597 s \$0-range-sel-set;
#X obj 520 441 r \$1;
#N canvas 62 250 609 489 effect 0;
#X msg 272 109 transpose \$1;
#X obj 28 345 outlet~;
#X obj 183 94 inlet~;
#X obj 272 -64 r \$0-semitones;
#X obj 184 134 pitchshifter~;
#X text 305 -17 The main audio processing code;
#X obj 20 118 line~;
#X obj 52 97 pack;
#X msg 77 75 10;
#X obj 166 156 *~;
#X text 3 -7 Compensate for apparent loudness;
#X obj 20 45 clip 0 1;
#X floatatom 99 41 5 0 0 0 - - -;
#X obj 145 283 r \$0-mix;
#X obj 27 320 crossfader~;
#X obj 235 214 r \$0-semitones;
#X obj 235 243 route 0;
#X msg 133 258 0;
#X msg 278 272 bang;
#X obj 252 305 s \$0-mix-set;
#X obj 473 145 switch~;
#X obj 473 56 inlet;
#X obj 473 86 route 0;
#X msg 473 113 1;
#X msg 519 113 0;
#X obj 20 15 expr 1/(1+$f1/30);
#X connect 0 0 4 1;
#X connect 2 0 4 0;
#X connect 2 0 14 0;
#X connect 3 0 0 0;
#X connect 3 0 25 0;
#X connect 4 0 9 1;
#X connect 6 0 9 0;
#X connect 7 0 6 1;
#X connect 8 0 7 1;
#X connect 9 0 14 1;
#X connect 11 0 6 0;
#X connect 13 0 14 2;
#X connect 14 0 1 0;
#X connect 15 0 16 0;
#X connect 16 0 17 0;
#X connect 16 1 18 0;
#X connect 17 0 14 2;
#X connect 18 0 19 0;
#X connect 21 0 22 0;
#X connect 22 0 23 0;
#X connect 22 1 24 0;
#X connect 23 0 20 0;
#X connect 24 0 20 0;
#X connect 25 0 11 0;
#X connect 25 0 12 0;
#X restore 345 273 pd effect;
#X obj 388 328 abswitch~;
#N canvas 35 193 550 390 bypass_control 0;
#X obj 152 92 r \$0-bypass-toggle;
#X obj 152 112 pack;
#X obj 152 214 t f f;
#X obj 228 214 t f f;
#X obj 152 132 route 0;
#X obj 158 324 outlet;
#X obj 217 324 outlet;
#X text 155 353 effect;
#X text 218 350 switcher;
#X text 105 36 sequences bypass and effect disable;
#X text 106 50 to prevent clicks when switching;
#X msg 98 214 clear;
#X msg 272 214 clear;
#X obj 228 262 pipe 100;
#X text 2 225 effect on;
#X text 335 223 effect off;
#X obj 152 262 pipe 100;
#X connect 0 0 1 1;
#X connect 0 0 1 0;
#X connect 1 0 4 0;
#X connect 2 0 16 0;
#X connect 2 1 5 0;
#X connect 3 0 13 0;
#X connect 3 1 6 0;
#X connect 4 0 2 0;
#X connect 4 0 12 0;
#X connect 4 1 3 0;
#X connect 4 1 11 0;
#X connect 11 0 16 0;
#X connect 12 0 13 0;
#X connect 13 0 5 0;
#X connect 16 0 6 0;
#X restore 448 241 pd bypass_control;
#X obj 112 234 tgl 15 1 \$0-expression-mix-toggle \$0-expression-mix-toggle-set
Expr-Mix 17 7 0 10 -262144 -1 -1 0 1;
#X obj 503 526 route expression-mix;
#X obj 503 555 s \$0-expression-mix-toggle-set;
#X obj 697 46 swap;
#X obj 697 66 pack;
#X obj 720 26 r \$0-expression-mix-toggle;
#X obj 697 86 route 0 1;
#X obj 977 99 s \$0-mix-set;
#X obj 192 234 tgl 15 1 \$0-expression-mix-50-toggle \$0-expression-mix-50-toggle-set
50% 17 7 0 10 -262144 -1 -1 0 1;
#X obj 523 586 route expression-mix-50;
#X obj 523 605 s \$0-expression-mix-50-toggle-set;
#X obj 1002 -16 r \$0-expression-mix-50-toggle;
#X obj 977 6 swap;
#X obj 977 26 pack;
#X obj 977 46 route 0 1;
#X obj 1007 66 / 2;
#X connect 0 0 3 0;
#X connect 4 0 78 0;
#X connect 8 0 13 0;
#X connect 9 0 4 1;
#X connect 11 0 8 0;
#X connect 22 0 25 0;
#X connect 23 0 30 0;
#X connect 24 0 34 0;
#X connect 24 1 32 0;
#X connect 24 2 31 0;
#X connect 25 0 28 0;
#X connect 25 1 26 0;
#X connect 25 2 27 0;
#X connect 26 0 48 0;
#X connect 27 0 48 0;
#X connect 28 0 48 0;
#X connect 29 0 49 0;
#X connect 30 0 24 0;
#X connect 31 0 34 0;
#X connect 32 0 33 0;
#X connect 33 0 34 0;
#X connect 34 0 35 0;
#X connect 37 0 38 0;
#X connect 38 0 39 0;
#X connect 45 0 50 1;
#X connect 46 0 50 0;
#X connect 47 0 4 0;
#X connect 48 0 34 0;
#X connect 48 1 34 1;
#X connect 49 0 30 0;
#X connect 49 1 30 1;
#X connect 50 0 72 0;
#X connect 50 0 73 1;
#X connect 51 0 53 0;
#X connect 52 0 54 0;
#X connect 55 0 56 0;
#X connect 57 0 58 0;
#X connect 59 0 60 0;
#X connect 60 0 61 0;
#X connect 60 1 62 0;
#X connect 60 2 63 0;
#X connect 61 0 64 0;
#X connect 62 0 64 0;
#X connect 63 0 64 0;
#X connect 65 0 70 0;
#X connect 66 0 70 0;
#X connect 67 0 70 0;
#X connect 68 0 69 0;
#X connect 69 0 65 0;
#X connect 69 1 66 0;
#X connect 69 2 67 0;
#X connect 71 0 51 0;
#X connect 71 0 52 0;
#X connect 71 0 55 0;
#X connect 71 0 57 0;
#X connect 71 0 59 0;
#X connect 71 0 68 0;
#X connect 71 0 76 0;
#X connect 71 0 84 0;
#X connect 72 0 73 0;
#X connect 73 0 44 0;
#X connect 73 0 6 0;
#X connect 74 0 72 1;
#X connect 74 1 73 2;
#X connect 76 0 77 0;
#X connect 78 0 79 0;
#X connect 78 1 79 1;
#X connect 79 0 81 0;
#X connect 80 0 78 1;
#X connect 81 0 10 0;
#X connect 81 1 87 0;
#X connect 84 0 85 0;
#X connect 86 0 87 1;
#X connect 87 0 88 0;
#X connect 87 1 88 1;
#X connect 88 0 89 0;
#X connect 89 0 82 0;
#X connect 89 1 90 0;
#X connect 90 0 82 0;
#X coords 0 -1 1 1 150 220 1 100 100;
